<svg width="228" height="221" viewBox="0 0 228 221" fill="none" xmlns="http://www.w3.org/2000/svg">
<g clip-path="url(#clip0_29_2)">
<rect width="228" height="221" rx="40" fill="#1E1E1E"/>
<path d="M-38.8987 76.4292L28.4066 68.7476L60.5001 188.522L-1.62872 215.523L-38.8987 76.4292Z" fill="#545454"/>
<path d="M25.8184 59.0883L164.912 21.8184L202.182 160.912L63.0883 198.182L25.8184 59.0883Z" fill="#545454"/>
<path d="M266.899 143.571L197.005 141.593L167.5 31.4776L229.629 4.47749L266.899 143.571Z" fill="#545454"/>
<path d="M60.9795 73.4783L57.9171 74.2988C57.4999 73.4665 56.9756 72.7776 56.3442 72.2321C55.721 71.6844 55.0276 71.2702 54.2642 70.9895C53.5068 70.6983 52.7103 70.5411 51.8747 70.518C51.0391 70.4948 50.2014 70.5957 49.3617 70.8207C47.8305 71.231 46.547 71.9896 45.5113 73.0966C44.4838 74.2013 43.8055 75.605 43.4765 77.3079C43.1558 79.0085 43.2887 80.9537 43.8755 83.1435C44.4623 85.3333 45.3197 87.0844 46.4478 88.3968C47.5842 89.707 48.8734 90.5836 50.3156 91.0266C51.7661 91.4673 53.2569 91.4825 54.7881 91.0723C55.6278 90.8473 56.4037 90.5158 57.1157 90.078C57.8278 89.6401 58.4401 89.1099 58.9527 88.4873C59.4713 87.8542 59.8635 87.1447 60.1294 86.3588C60.4013 85.5624 60.5109 84.7036 60.4582 83.7825L63.5206 82.9619C63.6364 84.3161 63.5265 85.5853 63.1908 86.7693C62.8552 87.9534 62.3305 89.0248 61.6169 89.9837C60.901 90.9343 60.0288 91.7459 59.0002 92.4186C57.9799 93.089 56.8317 93.5952 55.5557 93.9371C53.3989 94.515 51.3395 94.5021 49.3778 93.8984C47.4161 93.2946 45.6933 92.1504 44.2095 90.4657C42.7258 88.7809 41.6266 86.6049 40.9119 83.9376C40.1972 81.2704 40.0611 78.8363 40.5037 76.6354C40.9463 74.4344 41.8662 72.5821 43.2632 71.0784C44.6603 69.5747 46.4372 68.5338 48.5941 67.9559C49.8701 67.614 51.1175 67.4783 52.3364 67.5487C53.5635 67.617 54.7257 67.8879 55.8232 68.3615C56.9185 68.8268 57.9075 69.4883 58.7902 70.3458C59.6707 71.1952 60.4005 72.2393 60.9795 73.4783Z" fill="white"/>
<path d="M78.0031 87.9753C76.2907 88.4341 74.6792 88.4292 73.1683 87.9605C71.6657 87.4896 70.3558 86.6186 69.2387 85.3473C68.1299 84.0739 67.313 82.4575 66.788 80.4982C66.2586 78.5225 66.1546 76.7018 66.4759 75.0363C66.8055 73.3686 67.5033 71.9552 68.5691 70.7961C69.6432 69.6348 71.0364 68.8247 72.7487 68.3659C74.4611 67.9071 76.0685 67.9131 77.5712 68.384C79.082 68.8527 80.393 69.7279 81.504 71.0096C82.6233 72.289 83.4477 73.9166 83.9771 75.8924C84.5021 77.8517 84.5986 79.6611 84.2668 81.3205C83.9433 82.9778 83.2444 84.3871 82.1703 85.5484C81.1045 86.7075 79.7154 87.5165 78.0031 87.9753ZM77.3016 85.3574C78.6023 85.0089 79.5832 84.3887 80.2442 83.4969C80.9052 82.6051 81.2918 81.5618 81.4041 80.3671C81.5163 79.1723 81.4025 77.941 81.0628 76.6733C80.7231 75.4055 80.2049 74.2782 79.5081 73.2914C78.8114 72.3046 77.9527 71.5861 76.9321 71.1361C75.9116 70.686 74.7509 70.6353 73.4502 70.9838C72.1495 71.3323 71.1697 71.9566 70.5109 72.8566C69.8521 73.7567 69.4677 74.8082 69.3577 76.0112C69.2477 77.2142 69.3625 78.4496 69.7022 79.7173C70.0419 80.9851 70.559 82.1083 71.2536 83.0869C71.9482 84.0655 72.8046 84.7757 73.823 85.2175C74.8414 85.6593 76.0009 85.7059 77.3016 85.3574Z" fill="white"/>
<path d="M100.689 61.1442L98.7569 81.9908L95.7932 82.7849L83.697 65.697L86.8582 64.85L96.1439 78.5616L96.3415 78.5087L97.5273 61.9912L100.689 61.1442Z" fill="white"/>
<path d="M116.996 77.527C115.169 78.0167 113.484 78.0358 111.943 77.5842C110.407 77.1221 109.086 76.2584 107.979 74.9932C106.879 73.7176 106.068 72.1083 105.548 70.1655C105.027 68.2227 104.922 66.4155 105.233 64.744C105.55 63.062 106.235 61.6344 107.288 60.461C108.348 59.2772 109.733 58.4559 111.446 57.9971C112.434 57.7324 113.453 57.6356 114.505 57.7068C115.556 57.778 116.576 58.0782 117.565 58.6074C118.552 59.1283 119.442 59.9309 120.235 61.0154C121.029 62.0998 121.663 63.527 122.137 65.2969L122.468 66.5318L107.847 70.4493L107.172 67.9303L118.829 64.8068C118.542 63.7366 118.073 62.839 117.419 62.114C116.775 61.3868 115.996 60.8851 115.084 60.609C114.18 60.3306 113.201 60.3326 112.147 60.6149C110.987 60.926 110.059 61.4832 109.366 62.2867C108.678 63.0797 108.231 63.9938 108.023 65.0289C107.815 66.064 107.851 67.1043 108.131 68.1498L108.581 69.8292C108.965 71.2616 109.537 72.4097 110.298 73.2735C111.065 74.1268 111.962 74.6937 112.99 74.9741C114.016 75.2462 115.118 75.2246 116.295 74.9092C117.061 74.704 117.723 74.4117 118.284 74.0322C118.85 73.6423 119.301 73.1685 119.636 72.6109C119.97 72.045 120.172 71.3997 120.243 70.675L123.27 70.7109C123.229 71.7452 122.956 72.7184 122.451 73.6303C121.943 74.534 121.229 75.3254 120.308 76.0046C119.384 76.6754 118.281 77.1829 116.996 77.527Z" fill="white"/>
<path d="M129.177 73.8397L124.095 54.8724L126.911 54.118L127.678 56.9829L127.876 56.9299C127.97 55.8988 128.392 54.9697 129.141 54.1425C129.89 53.3154 130.832 52.7496 131.968 52.4452C132.182 52.3878 132.451 52.3203 132.774 52.2425C133.097 52.1647 133.343 52.112 133.513 52.0843L134.307 55.0479C134.201 55.0497 133.965 55.0733 133.598 55.1188C133.236 55.1538 132.862 55.2231 132.476 55.3268C131.554 55.5739 130.782 55.9879 130.161 56.569C129.547 57.1395 129.12 57.8186 128.881 58.6062C128.648 59.3833 128.646 60.1999 128.875 61.0561L132.092 73.0588L129.177 73.8397Z" fill="white"/>
<path d="M59.6449 117.694L60.3067 120.164L50.0821 122.903L49.4204 120.434L59.6449 117.694ZM57.5651 138.58L51.7813 116.995C51.4902 115.908 51.5027 114.935 51.819 114.073C52.1353 113.212 52.6524 112.491 53.3704 111.911C54.0883 111.33 54.9 110.918 55.8056 110.676C56.5218 110.484 57.1218 110.385 57.6054 110.379C58.0891 110.373 58.4553 110.389 58.704 110.429L58.5393 113.173C58.3779 113.163 58.1555 113.156 57.8723 113.153C57.5972 113.147 57.2497 113.201 56.8299 113.313C55.8667 113.571 55.2362 114 54.9382 114.601C54.6485 115.199 54.6294 115.967 54.8809 116.906L60.4793 137.799L57.5651 138.58Z" fill="white"/>
<path d="M64.9493 109.496L71.7257 134.786L68.8114 135.567L62.0351 110.277L64.9493 109.496Z" fill="white"/>
<path d="M84.8746 131.686C83.1623 132.145 81.5507 132.14 80.0399 131.671C78.5373 131.201 77.2274 130.329 76.1103 129.058C75.0015 127.785 74.1845 126.168 73.6596 124.209C73.1301 122.233 73.0261 120.413 73.3475 118.747C73.6771 117.08 74.3748 115.666 75.4407 114.507C76.5148 113.346 77.908 112.536 79.6203 112.077C81.3326 111.618 82.9401 111.624 84.4427 112.095C85.9536 112.564 87.2645 113.439 88.3756 114.72C89.4949 116 90.3192 117.628 90.8486 119.603C91.3736 121.563 91.4702 123.372 91.1384 125.031C90.8148 126.689 90.116 128.098 89.0419 129.259C87.9761 130.418 86.587 131.227 84.8746 131.686ZM84.1732 129.068C85.4739 128.72 86.4548 128.1 87.1158 127.208C87.7768 126.316 88.1634 125.273 88.2756 124.078C88.3878 122.883 88.2741 121.652 87.9344 120.384C87.5947 119.116 87.0765 117.989 86.3797 117.002C85.683 116.015 84.8243 115.297 83.8037 114.847C82.7831 114.397 81.6225 114.346 80.3218 114.695C79.0211 115.043 78.0413 115.668 77.3825 116.568C76.7237 117.468 76.3393 118.519 76.2293 119.722C76.1192 120.925 76.2341 122.16 76.5738 123.428C76.9135 124.696 77.4306 125.819 78.1252 126.798C78.8197 127.776 79.6762 128.487 80.6946 128.928C81.7129 129.37 82.8725 129.417 84.1732 129.068Z" fill="white"/>
<path d="M101.464 126.818L90.6026 109.399L93.665 108.578L101.656 122.002L101.853 121.949L102.013 106.342L105.124 105.508L113.003 118.908L113.201 118.855L113.423 103.284L116.485 102.464L115.788 122.979L112.923 123.747L104.87 110.288L104.574 110.367L104.329 126.05L101.464 126.818Z" fill="white"/>
<path d="M86.014 162.957C86.7287 165.624 86.8647 168.058 86.4221 170.259C85.9795 172.46 85.0597 174.312 83.6627 175.816C82.2656 177.32 80.4887 178.361 78.3318 178.939C76.1749 179.517 74.1156 179.504 72.1539 178.9C70.1921 178.296 68.4694 177.152 66.9856 175.467C65.5019 173.782 64.4026 171.606 63.688 168.939C62.9733 166.272 62.8372 163.838 63.2798 161.637C63.7224 159.436 64.6422 157.584 66.0393 156.08C67.4363 154.576 69.2133 153.535 71.3702 152.957C73.527 152.379 75.5863 152.392 77.5481 152.996C79.5098 153.6 81.2326 154.744 82.7163 156.429C84.2001 158.114 85.2993 160.29 86.014 162.957ZM83.0504 163.751C82.4636 161.561 81.6021 159.811 80.4657 158.501C79.3376 157.189 78.0483 156.312 76.5979 155.871C75.1557 155.428 73.669 155.412 72.1378 155.822C70.6066 156.233 69.3231 156.991 68.2874 158.098C67.2599 159.203 66.5816 160.607 66.2526 162.309C65.9318 164.01 66.0648 165.955 66.6516 168.145C67.2383 170.335 68.0958 172.086 69.2239 173.398C70.3602 174.708 71.6495 175.585 73.0917 176.028C74.5421 176.469 76.033 176.484 77.5642 176.074C79.0954 175.663 80.3747 174.906 81.4022 173.801C82.438 172.694 83.1162 171.291 83.437 169.59C83.766 167.887 83.6371 165.941 83.0504 163.751Z" fill="white"/>
<path d="M103.3 151.549C102.816 150.337 101.955 149.527 100.716 149.118C99.4768 148.709 98.0916 148.709 96.5604 149.119C95.4408 149.419 94.5097 149.863 93.7671 150.45C93.0327 151.035 92.5158 151.708 92.2164 152.467C91.9252 153.225 91.8877 154.007 92.1039 154.813C92.2848 155.488 92.6008 156.026 93.052 156.426C93.5092 156.815 94.0361 157.102 94.6325 157.286C95.2267 157.462 95.8313 157.578 96.4463 157.634C97.059 157.681 97.6165 157.704 98.1189 157.702L100.873 157.705C101.578 157.701 102.374 157.744 103.263 157.832C104.159 157.918 105.049 158.126 105.931 158.454C106.819 158.772 107.615 159.273 108.319 159.958C109.023 160.643 109.534 161.578 109.852 162.764C110.218 164.13 110.19 165.461 109.77 166.756C109.357 168.049 108.555 169.204 107.363 170.22C106.179 171.234 104.615 172.002 102.672 172.522C100.861 173.008 99.2148 173.136 97.7327 172.906C96.259 172.675 95.0033 172.138 93.9658 171.295C92.9365 170.45 92.1872 169.35 91.7178 167.993L94.879 167.146C95.2172 168.079 95.75 168.783 96.4775 169.259C97.211 169.724 98.0507 169.993 98.9967 170.066C99.9487 170.129 100.927 170.025 101.931 169.756C103.1 169.443 104.099 168.973 104.928 168.345C105.755 167.708 106.348 166.976 106.708 166.147C107.066 165.31 107.122 164.43 106.875 163.508C106.65 162.669 106.232 162.048 105.622 161.647C105.011 161.246 104.279 160.983 103.425 160.859C102.571 160.735 101.667 160.669 100.711 160.66L97.3614 160.605C95.2335 160.566 93.4521 160.174 92.0172 159.429C90.5823 158.684 89.6366 157.46 89.18 155.756C88.8006 154.34 88.8525 153.002 89.3357 151.743C89.825 150.474 90.6417 149.373 91.7858 148.44C92.9359 147.496 94.3177 146.809 95.9313 146.376C97.5613 145.939 99.0885 145.843 100.513 146.088C101.935 146.325 103.151 146.846 104.161 147.652C105.179 148.455 105.88 149.49 106.263 150.755L103.3 151.549Z" fill="white"/>
</g>
<defs>
<clipPath id="clip0_29_2">
<rect width="228" height="221" rx="40" fill="white"/>
</clipPath>
</defs>
</svg>
